# 3ds Max Wavefront OBJ Exporter v0.97b - (c)2007 guruware
# File Created: 31.07.2016 14:24:11

mtllib Werkzeug.mtl

#
# object Box002
#

v  -33.9067 36.7199 -18.9123
v  -32.4168 28.7109 -18.9123
v  -31.0402 27.3342 -18.9123
v  -28.2661 28.7109 -18.9123
v  -29.6427 27.3342 -18.9123
v  -26.7761 36.7199 -18.9123
v  -29.1530 38.7378 -18.9123
v  -31.5299 38.7378 -18.9123
v  -26.7761 36.7199 -20.1795
v  -28.2661 28.7109 -20.1795
v  -29.6427 27.3342 -20.1795
v  -29.1530 38.7378 -20.1795
v  -31.5299 38.7378 -20.1795
v  -33.9067 36.7199 -20.1795
v  -31.0402 27.3342 -20.1795
v  -32.4168 28.7109 -20.1795
v  -68.4860 14.8204 24.7534
v  -68.4860 14.8204 -18.7410
v  7.8269 14.8204 -18.7410
v  7.8269 14.8204 24.7534
v  -48.0333 45.7732 -3.0140
v  -48.0333 45.7732 9.0264
v  -12.6257 45.7732 9.0264
v  -12.6257 45.7732 -3.0140
v  -68.4860 34.7180 24.7534
v  7.8269 34.7180 24.7534
v  3.4035 45.7732 21.0668
v  -64.0626 45.7732 21.0668
v  7.8269 34.7180 -18.7410
v  3.4035 45.7732 -15.0544
v  3.4035 45.7732 -3.0140
v  3.4035 45.7732 9.0264
v  -68.4860 34.7180 -18.7410
v  -64.0626 45.7732 -15.0544
v  -64.0626 45.7732 9.0264
v  -64.0626 45.7732 -3.0140
v  -58.6936 45.7732 -3.0140
v  -1.9654 45.7732 -3.0140
v  -1.9654 45.7732 9.0264
v  -58.6936 45.7732 9.0264
v  -55.7141 45.7732 -0.0345
v  -51.0128 45.7732 -0.0345
v  -55.7141 45.7732 6.0469
v  -51.0128 45.7732 6.0469
v  -9.6462 45.7732 -0.0345
v  -4.9449 45.7732 -0.0345
v  -9.6462 45.7732 6.0469
v  -4.9449 45.7732 6.0469
v  -55.7141 57.4034 -0.0345
v  -51.0128 50.9286 -0.0345
v  -55.7141 57.4034 6.0469
v  -51.0128 50.9286 6.0469
v  -9.6462 50.9286 -0.0345
v  -4.9449 57.4034 -0.0345
v  -9.6462 50.9286 6.0469
v  -4.9449 57.4034 6.0469
# 56 vertices

vn 0.0000 0.0000 1.0000
vn 0.0000 -0.0000 -1.0000
vn 0.3447 0.9387 0.0000
vn -0.3447 0.9387 -0.0000
vn 0.9831 -0.1829 0.0000
vn 0.0000 -1.0000 0.0000
vn -0.9831 -0.1829 0.0000
vn 0.7071 -0.7071 0.0000
vn -0.7071 -0.7071 0.0000
vn 0.6472 0.7623 0.0000
vn 0.6472 0.7623 -0.0000
vn -0.6472 0.7623 -0.0000
vn -0.0000 1.0000 0.0000
vn 0.0000 1.0000 0.0000
vn 0.0000 0.3164 0.9486
vn 0.9284 0.3715 0.0000
vn 0.9284 0.3715 -0.0000
vn 0.0000 0.3164 -0.9486
vn -0.9284 0.3715 0.0000
vn -0.9284 0.3715 -0.0000
vn -1.0000 0.0000 -0.0000
vn 1.0000 0.0000 -0.0000
vn 0.0000 1.0000 -0.0000
vn 0.0000 0.0000 -1.0000
vn 1.0000 0.0000 0.0000
vn -0.0000 -0.0000 1.0000
vn -0.0000 0.0000 1.0000
# 27 vertex normals

vt 0.5355 0.8805 0.0000
vt 0.5887 0.8904 0.0000
vt 0.5978 0.8996 0.0000
vt 0.5887 0.9180 0.0000
vt 0.5978 0.9089 0.0000
vt 0.5355 0.9279 0.0000
vt 0.5220 0.9121 0.0000
vt 0.5220 0.8963 0.0000
vt 0.5607 0.9651 0.0000
vt 0.5607 0.9567 0.0000
vt 0.5765 0.9567 0.0000
vt 0.5765 0.9651 0.0000
vt 0.5308 0.9817 0.0000
vt 0.4776 0.9817 0.0000
vt 0.4776 0.9733 0.0000
vt 0.5308 0.9733 0.0000
vt 0.4602 0.9817 0.0000
vt 0.4510 0.9817 0.0000
vt 0.4510 0.9733 0.0000
vt 0.4602 0.9733 0.0000
vt 0.5923 0.9817 0.0000
vt 0.5390 0.9817 0.0000
vt 0.5390 0.9733 0.0000
vt 0.5923 0.9733 0.0000
vt 0.4694 0.9817 0.0000
vt 0.4694 0.9733 0.0000
vt 0.4418 0.9817 0.0000
vt 0.4418 0.9733 0.0000
vt 0.5449 0.9651 0.0000
vt 0.5449 0.9567 0.0000
vt 0.5923 0.9567 0.0000
vt 0.5923 0.9651 0.0000
vt 0.0100 0.2990 0.0000
vt 0.0100 0.0100 0.0000
vt 0.5171 0.0100 0.0000
vt 0.5171 0.2990 0.0000
vt 0.3518 0.4037 0.0000
vt 0.3518 0.4837 0.0000
vt 0.1165 0.4837 0.0000
vt 0.1165 0.4037 0.0000
vt 0.5171 0.6618 0.0000
vt 0.0100 0.6618 0.0000
vt 0.0394 0.5883 0.0000
vt 0.4877 0.5883 0.0000
vt 0.5417 0.7205 0.0000
vt 0.8307 0.7205 0.0000
vt 0.8062 0.7940 0.0000
vt 0.7262 0.7940 0.0000
vt 0.6462 0.7940 0.0000
vt 0.5662 0.7940 0.0000
vt 0.5176 0.6612 0.0000
vt 0.0105 0.6612 0.0000
vt 0.0399 0.5878 0.0000
vt 0.4882 0.5878 0.0000
vt 0.5421 0.7196 0.0000
vt 0.8311 0.7196 0.0000
vt 0.8066 0.7931 0.0000
vt 0.7266 0.7931 0.0000
vt 0.6466 0.7931 0.0000
vt 0.5666 0.7931 0.0000
vt 0.5421 0.5874 0.0000
vt 0.8311 0.5874 0.0000
vt 0.5176 0.7934 0.0000
vt 0.0105 0.7934 0.0000
vt 0.5417 0.5883 0.0000
vt 0.8307 0.5883 0.0000
vt 0.5171 0.7940 0.0000
vt 0.0100 0.7940 0.0000
vt 0.0100 0.3237 0.0000
vt 0.4583 0.3237 0.0000
vt 0.4583 0.4037 0.0000
vt 0.4226 0.4037 0.0000
vt 0.0457 0.4037 0.0000
vt 0.0100 0.4037 0.0000
vt 0.4583 0.5637 0.0000
vt 0.0100 0.5637 0.0000
vt 0.0100 0.4837 0.0000
vt 0.0457 0.4837 0.0000
vt 0.4226 0.4837 0.0000
vt 0.4583 0.4837 0.0000
vt 0.4028 0.4235 0.0000
vt 0.3716 0.4235 0.0000
vt 0.4028 0.4639 0.0000
vt 0.3716 0.4639 0.0000
vt 0.0967 0.4235 0.0000
vt 0.0655 0.4235 0.0000
vt 0.0967 0.4639 0.0000
vt 0.0655 0.4639 0.0000
vt 0.3161 0.8187 0.0000
vt 0.3473 0.8187 0.0000
vt 0.3473 0.8959 0.0000
vt 0.3161 0.8529 0.0000
vt 0.4576 0.8655 0.0000
vt 0.4576 0.9059 0.0000
vt 0.3803 0.9059 0.0000
vt 0.3803 0.8655 0.0000
vt 0.0098 0.8183 0.0000
vt 0.0410 0.8183 0.0000
vt 0.0410 0.8525 0.0000
vt 0.0098 0.8955 0.0000
vt 0.9048 0.8269 0.0000
vt 0.9452 0.8269 0.0000
vt 0.9452 0.8612 0.0000
vt 0.9048 0.8612 0.0000
vt 0.0100 0.8187 0.0000
vt 0.0412 0.8187 0.0000
vt 0.0412 0.8529 0.0000
vt 0.0100 0.8959 0.0000
vt 0.9441 0.8611 0.0000
vt 0.9037 0.8611 0.0000
vt 0.9037 0.8269 0.0000
vt 0.9441 0.8269 0.0000
vt 0.3159 0.8183 0.0000
vt 0.3471 0.8183 0.0000
vt 0.3471 0.8955 0.0000
vt 0.3159 0.8525 0.0000
vt 0.3815 0.9050 0.0000
vt 0.3815 0.8646 0.0000
vt 0.4588 0.8646 0.0000
vt 0.4588 0.9050 0.0000
vt 0.0100 0.9610 0.0000
vt 0.0100 0.9206 0.0000
vt 0.3473 0.9206 0.0000
vt 0.3473 0.9610 0.0000
vt 0.8166 0.2486 0.0000
vt 0.8166 0.2890 0.0000
vt 0.5417 0.2890 0.0000
vt 0.5417 0.2486 0.0000
# 128 texture coords

g Box002
usemtl 02___Default
s 1
f 1/1/1 2/2/1 3/3/1 4/4/1 
f 3/3/1 5/5/1 4/4/1 
f 4/4/1 6/6/1 7/7/1 8/8/1 
f 1/1/1 4/4/1 8/8/1 
f 9/1/2 10/2/2 11/3/2 12/8/2 
f 13/7/2 12/8/2 11/3/2 14/6/2 
f 11/3/2 15/5/2 16/4/2 14/6/2 
s 2
f 7/9/3 12/10/3 13/11/4 8/12/4 
s 4
f 6/13/5 4/14/5 10/15/5 9/16/5 
s 2
f 5/17/6 3/18/6 15/19/6 11/20/6 
s 4
f 2/21/7 1/22/7 14/23/7 16/24/7 
s 8
f 4/25/8 5/17/8 11/20/8 10/26/8 
f 3/18/9 2/27/9 16/28/9 15/19/9 
s 2
f 6/29/10 9/30/11 12/10/3 7/9/3 
f 14/31/12 1/32/12 8/12/4 13/11/4 
f 17/33/6 18/34/6 19/35/6 20/36/6 
s 4
f 21/37/13 22/38/14 23/39/13 24/40/14 
s 8
f 25/41/15 26/42/15 27/43/15 28/44/15 
s 16
f 26/45/16 29/46/17 30/47/16 31/48/16 
f 26/45/16 31/48/16 32/49/17 27/50/16 
s 32
f 29/51/18 33/52/18 34/53/18 30/54/18 
s 64
f 33/55/19 25/56/20 28/57/19 35/58/19 
f 33/55/19 35/58/19 36/59/20 34/60/19 
s off
f 25/56/21 33/55/21 18/61/21 17/62/21 
f 33/52/2 29/51/2 19/63/2 18/64/2 
f 29/46/22 26/45/22 20/65/22 19/66/22 
f 26/42/1 25/41/1 17/67/1 20/68/1 
s 4
f 30/69/13 34/70/14 36/71/23 37/72/13 
f 30/69/13 37/72/13 21/37/13 24/40/14 
f 30/69/13 24/40/14 38/73/14 31/74/23 
f 28/75/13 27/76/14 32/77/23 39/78/13 
f 28/75/13 39/78/13 23/39/13 22/38/14 
f 28/75/13 22/38/14 40/79/14 35/80/23 
f 36/71/23 35/80/23 40/79/14 37/72/13 
f 32/77/23 31/74/23 38/73/14 39/78/13 
s off
f 21/37/23 37/72/23 41/81/23 42/82/23 
f 37/72/23 40/79/23 43/83/23 41/81/23 
f 40/79/23 22/38/23 44/84/23 43/83/23 
f 22/38/23 21/37/23 42/82/23 44/84/23 
f 38/73/23 24/40/23 45/85/23 46/86/23 
f 24/40/23 23/39/23 47/87/23 45/85/23 
f 23/39/23 39/78/23 48/88/23 47/87/23 
f 39/78/23 38/73/23 46/86/23 48/88/23 
f 42/89/24 41/90/24 49/91/24 50/92/24 
f 41/93/21 43/94/21 51/95/21 49/96/21 
f 43/97/1 44/98/1 52/99/1 51/100/1 
f 44/101/25 42/102/25 50/103/25 52/104/25 
f 46/105/2 45/106/2 53/107/2 54/108/2 
f 45/109/21 47/110/21 55/111/21 53/112/21 
f 47/113/26 48/114/26 56/115/26 55/116/26 
f 48/117/22 46/118/22 54/119/22 56/120/22 
s 1
f 56/121/23 54/122/23 49/123/23 51/124/23 
s 2
f 54/108/2 53/107/2 50/92/2 49/91/2 
s 1
f 53/125/6 55/126/6 52/127/6 50/128/6 
s 2
f 55/116/27 56/115/27 51/100/26 52/99/26 
# 53 polygons - 2 triangles

