# Blender v2.77 (sub 0) OBJ File: 'Gear.blend'
# www.blender.org
o Gear.001_Gear.002
v 2.029447 -0.154523 -0.079306
v 2.145723 -0.154523 0.110462
v 2.145723 -0.154523 -0.110462
v 2.188005 -0.154523 -0.121792
v 2.066213 -0.154523 -0.332741
v 2.237035 -0.154523 -0.197901
v 2.156641 -0.154523 -0.337148
v 2.029447 0.154523 -0.079306
v 1.950141 0.154523 -0.216669
v 2.145723 0.154523 -0.110462
v 2.035260 0.154523 -0.301789
v 2.188005 0.154523 -0.121792
v 2.066213 0.154523 -0.332741
v 2.237035 0.154523 -0.197901
v 2.156641 0.154523 -0.337148
v 1.950141 -0.154523 -0.216669
v 1.812778 -0.154523 -0.295975
v 2.035260 -0.154523 -0.301789
v 1.843934 -0.154523 -0.412251
v 1.623010 -0.154523 -0.412251
v 1.855264 -0.154523 -0.454533
v 1.611680 -0.154523 -0.454533
v 1.813866 -0.154523 -0.535049
v 1.653078 -0.154523 -0.535049
v 1.812778 0.154523 -0.295975
v 1.654166 0.154523 -0.295975
v 1.843934 0.154523 -0.412251
v 1.855264 0.154523 -0.454533
v 1.611680 0.154523 -0.454533
v 1.813866 0.154523 -0.535049
v 1.653078 0.154523 -0.535049
v 1.654166 -0.154523 -0.295975
v 1.516803 -0.154523 -0.216669
v 1.437497 -0.154523 -0.079306
v 1.431683 -0.154523 -0.301789
v 1.321221 -0.154523 -0.110462
v 1.400730 -0.154523 -0.332741
v 1.278939 -0.154523 -0.121792
v 1.310303 -0.154523 -0.337148
v 1.229909 -0.154523 -0.197901
v 1.516803 0.154523 -0.216669
v 1.623010 0.154523 -0.412251
v 1.431683 0.154523 -0.301789
v 1.321221 0.154523 -0.110462
v 1.400730 0.154523 -0.332741
v 1.278939 0.154523 -0.121792
v 1.310303 0.154523 -0.337148
v 1.229909 0.154523 -0.197901
v 1.437497 -0.154523 0.079306
v 1.516803 -0.154523 0.216669
v 1.321221 -0.154523 0.110462
v 1.278939 -0.154523 0.121792
v 1.400730 -0.154523 0.332741
v 1.229909 -0.154523 0.197901
v 1.310303 -0.154523 0.337148
v 1.437497 0.154523 -0.079306
v 1.437497 0.154523 0.079306
v 1.516803 0.154523 0.216669
v 1.321221 0.154523 0.110462
v 1.278939 0.154523 0.121792
v 1.400730 0.154523 0.332741
v 1.229909 0.154523 0.197901
v 1.310303 0.154523 0.337148
v 1.654166 -0.154523 0.295975
v 1.812778 -0.154523 0.295975
v 1.431683 -0.154523 0.301789
v 1.623010 -0.154523 0.412251
v 1.843934 -0.154523 0.412251
v 1.611680 -0.154523 0.454533
v 1.855264 -0.154523 0.454533
v 1.653078 -0.154523 0.535049
v 1.813866 -0.154523 0.535049
v 1.654166 0.154523 0.295975
v 1.812778 0.154523 0.295975
v 1.431683 0.154523 0.301789
v 1.623010 0.154523 0.412251
v 1.843934 0.154523 0.412251
v 1.611680 0.154523 0.454533
v 1.855264 0.154523 0.454533
v 1.653078 0.154523 0.535049
v 1.813866 0.154523 0.535049
v 1.950141 -0.154523 0.216669
v 2.029447 -0.154523 0.079306
v 2.035260 -0.154523 0.301789
v 2.066213 -0.154523 0.332741
v 2.188005 -0.154523 0.121792
v 2.156641 -0.154523 0.337148
v 2.237035 -0.154523 0.197901
v 1.950141 0.154523 0.216669
v 2.029447 0.154523 0.079306
v 2.035260 0.154523 0.301789
v 2.145723 0.154523 0.110462
v 2.066213 0.154523 0.332741
v 2.188005 0.154523 0.121792
v 2.156641 0.154523 0.337148
v 2.237035 0.154523 0.197901
v 1.611680 -0.154523 -0.454533
v 1.653078 -0.154523 -0.535049
v 1.321221 -0.154523 -0.110462
v 1.321221 -0.154523 -0.110462
v 1.321221 0.154523 -0.110462
v 1.321221 0.154523 -0.110462
v 2.066213 -0.154523 -0.332741
v 2.156641 -0.154523 -0.337148
v 1.813866 -0.154523 -0.535049
v 1.278939 -0.154523 -0.121792
v 1.229909 -0.154523 -0.197901
v 1.654166 0.154523 0.295975
v 1.812778 0.154523 0.295975
v 1.843934 -0.154523 0.412251
v 1.843934 -0.154523 0.412251
v 1.855264 -0.154523 0.454533
v 2.035260 0.154523 -0.301789
v 2.035260 0.154523 -0.301789
v 2.066213 0.154523 -0.332741
v 2.145723 -0.154523 0.110462
v 2.145723 -0.154523 0.110462
v 2.145723 -0.154523 -0.110462
v 2.145723 -0.154523 -0.110462
v 1.321221 0.154523 0.110462
v 1.321221 0.154523 0.110462
v 1.278939 0.154523 0.121792
v 1.843934 0.154523 0.412251
v 1.843934 0.154523 0.412251
v 1.855264 0.154523 0.454533
v 2.035260 -0.154523 -0.301789
v 2.035260 -0.154523 -0.301789
v 1.843934 -0.154523 -0.412251
v 1.843934 -0.154523 -0.412251
v 1.229909 0.154523 0.197901
v 1.310303 0.154523 0.337148
v 1.400730 0.154523 0.332741
v 1.278939 0.154523 -0.121792
v 1.437497 -0.154523 0.079306
v 1.516803 -0.154523 0.216669
v 1.229909 0.154523 -0.197901
v 1.654166 -0.154523 -0.295975
v 1.516803 -0.154523 -0.216669
v 1.437497 0.154523 -0.079306
v 1.437497 0.154523 0.079306
v 1.623010 -0.154523 -0.412251
v 1.623010 -0.154523 -0.412251
v 2.188005 -0.154523 -0.121792
v 2.188005 0.154523 0.121792
v 2.237035 0.154523 0.197901
v 1.813866 0.154523 0.535049
v 1.400730 -0.154523 0.332741
v 1.310303 -0.154523 0.337148
v 2.035260 0.154523 0.301789
v 2.035260 0.154523 0.301789
v 2.237035 0.154523 -0.197901
v 2.156641 0.154523 -0.337148
v 1.431683 0.154523 -0.301789
v 1.431683 0.154523 -0.301789
v 1.400730 0.154523 -0.332741
v 2.237035 -0.154523 -0.197901
v 1.431683 0.154523 0.301789
v 1.431683 0.154523 0.301789
v 1.623010 0.154523 0.412251
v 1.623010 0.154523 0.412251
v 2.145723 0.154523 -0.110462
v 2.145723 0.154523 -0.110462
v 2.188005 0.154523 -0.121792
v 2.035260 -0.154523 0.301789
v 2.035260 -0.154523 0.301789
v 2.066213 -0.154523 0.332741
v 1.611680 0.154523 -0.454533
v 1.653078 0.154523 -0.535049
v 1.431683 -0.154523 0.301789
v 1.431683 -0.154523 0.301789
v 2.188005 -0.154523 0.121792
v 2.237035 -0.154523 0.197901
v 1.813866 0.154523 -0.535049
v 2.145723 0.154523 0.110462
v 2.145723 0.154523 0.110462
v 1.950141 0.154523 0.216669
v 2.029447 0.154523 0.079306
v 1.321221 -0.154523 0.110462
v 1.321221 -0.154523 0.110462
v 1.278939 -0.154523 0.121792
v 1.855264 -0.154523 -0.454533
v 2.156641 -0.154523 0.337148
v 1.813866 -0.154523 0.535049
v 1.812778 -0.154523 0.295975
v 1.950141 -0.154523 0.216669
v 2.029447 0.154523 -0.079306
v 1.950141 0.154523 -0.216669
v 1.653078 -0.154523 0.535049
v 2.066213 0.154523 0.332741
v 2.156641 0.154523 0.337148
v 1.623010 0.154523 -0.412251
v 1.623010 0.154523 -0.412251
v 1.516803 0.154523 -0.216669
v 1.950141 -0.154523 -0.216669
v 1.812778 -0.154523 -0.295975
v 1.431683 -0.154523 -0.301789
v 1.431683 -0.154523 -0.301789
v 1.400730 -0.154523 -0.332741
v 1.812778 0.154523 -0.295975
v 1.654166 0.154523 -0.295975
v 1.310303 -0.154523 -0.337148
v 1.843934 0.154523 -0.412251
v 1.843934 0.154523 -0.412251
v 1.855264 0.154523 -0.454533
v 1.229909 -0.154523 0.197901
v 2.029447 -0.154523 0.079306
v 2.029447 -0.154523 -0.079306
v 1.310303 0.154523 -0.337148
v 1.653078 0.154523 0.535049
v 1.611680 0.154523 0.454533
v 1.654166 -0.154523 0.295975
v 1.611680 -0.154523 0.454533
v 1.516803 0.154523 0.216669
v 1.623010 -0.154523 0.412251
v 1.623010 -0.154523 0.412251
v 1.437497 -0.154523 -0.079306
vt 0.3965 0.2396
vt 0.4079 0.2169
vt 0.4262 0.2380
vt 0.4221 0.2691
vt 0.4474 0.2380
vt 0.4516 0.2691
vt 0.4206 0.2804
vt 0.4531 0.2804
vt 0.4261 0.3019
vt 0.4476 0.3019
vt 0.4079 0.4099
vt 0.3965 0.3871
vt 0.4221 0.3576
vt 0.4262 0.3887
vt 0.4516 0.3576
vt 0.4474 0.3887
vt 0.4206 0.3463
vt 0.4531 0.3463
vt 0.4261 0.3248
vt 0.4476 0.3248
vt 0.2200 0.8915
vt 0.2200 0.9740
vt 0.1905 0.9740
vt 0.1905 0.8915
vt 0.1905 0.8915
vt 0.1905 0.9740
vt 0.1846 0.9740
vt 0.1846 0.8915
vt 0.1725 0.9740
vt 0.1725 0.8914
vt 0.1510 0.9740
vt 0.1511 0.8914
vt 0.1389 0.9740
vt 0.1390 0.8914
vt 0.1331 0.9740
vt 0.1331 0.8914
vt 0.4658 0.2169
vt 0.4771 0.2396
vt 0.4764 0.1802
vt 0.4919 0.1885
vt 0.4813 0.2479
vt 0.4975 0.1915
vt 0.4934 0.2490
vt 0.5041 0.2118
vt 0.4771 0.3871
vt 0.4658 0.4099
vt 0.4919 0.4382
vt 0.4764 0.4466
vt 0.4813 0.3789
vt 0.4975 0.4352
vt 0.4934 0.3777
vt 0.5041 0.4149
vt 0.1331 0.8914
vt 0.1331 0.9740
vt 0.1036 0.9740
vt 0.1036 0.8914
vt 0.1036 0.8914
vt 0.1036 0.9740
vt 0.0977 0.9740
vt 0.0978 0.8914
vt 0.0857 0.9739
vt 0.0857 0.8914
vt 0.0642 0.9739
vt 0.0642 0.8914
vt 0.0521 0.9739
vt 0.0521 0.8914
vt 0.0462 0.9739
vt 0.0463 0.8914
vt 0.4764 0.1378
vt 0.4919 0.1295
vt 0.4658 0.1011
vt 0.4771 0.0784
vt 0.4975 0.1264
vt 0.4813 0.0701
vt 0.5041 0.1061
vt 0.4934 0.0689
vt 0.4919 0.4973
vt 0.4764 0.4889
vt 0.4771 0.5484
vt 0.4658 0.5256
vt 0.4975 0.5003
vt 0.4813 0.5566
vt 0.5041 0.5206
vt 0.4934 0.5578
vt 0.5674 0.8917
vt 0.5674 0.9743
vt 0.5379 0.9743
vt 0.5379 0.8917
vt 0.5379 0.8917
vt 0.5379 0.9743
vt 0.5321 0.9743
vt 0.5321 0.8917
vt 0.5200 0.9742
vt 0.5200 0.8917
vt 0.4985 0.9742
vt 0.4985 0.8917
vt 0.4864 0.9742
vt 0.4864 0.8917
vt 0.4805 0.9742
vt 0.4806 0.8917
vt 0.4474 0.0799
vt 0.4516 0.0489
vt 0.4262 0.0799
vt 0.4221 0.0489
vt 0.4531 0.0376
vt 0.4206 0.0376
vt 0.4476 0.0161
vt 0.4261 0.0161
vt 0.4516 0.5779
vt 0.4474 0.5468
vt 0.4221 0.5779
vt 0.4262 0.5468
vt 0.4531 0.5892
vt 0.4206 0.5892
vt 0.4476 0.6107
vt 0.4261 0.6107
vt 0.4806 0.8917
vt 0.4805 0.9742
vt 0.4510 0.9742
vt 0.4511 0.8916
vt 0.4511 0.8916
vt 0.4510 0.9742
vt 0.4452 0.9742
vt 0.4452 0.8916
vt 0.4331 0.9742
vt 0.4331 0.8916
vt 0.4116 0.9742
vt 0.4116 0.8916
vt 0.3995 0.9742
vt 0.3995 0.8916
vt 0.3937 0.9742
vt 0.3937 0.8916
vt 0.4079 0.1011
vt 0.3965 0.0784
vt 0.3973 0.1378
vt 0.3818 0.1295
vt 0.3924 0.0701
vt 0.3761 0.1264
vt 0.3803 0.0689
vt 0.3696 0.1061
vt 0.3965 0.5484
vt 0.4079 0.5256
vt 0.3818 0.4973
vt 0.3973 0.4889
vt 0.3924 0.5566
vt 0.3761 0.5003
vt 0.3803 0.5578
vt 0.3696 0.5206
vt 0.3937 0.8916
vt 0.3937 0.9742
vt 0.3642 0.9741
vt 0.3642 0.8916
vt 0.3642 0.8916
vt 0.3642 0.9741
vt 0.3583 0.9741
vt 0.3583 0.8916
vt 0.3462 0.9741
vt 0.3463 0.8916
vt 0.3248 0.9741
vt 0.3248 0.8916
vt 0.3127 0.9741
vt 0.3127 0.8915
vt 0.3068 0.9741
vt 0.3068 0.8915
vt 0.3068 0.9741
vt 0.2773 0.9741
vt 0.2773 0.8915
vt 0.3068 0.8915
vt 0.3818 0.1885
vt 0.3973 0.1802
vt 0.3761 0.1915
vt 0.3924 0.2479
vt 0.3696 0.2118
vt 0.3803 0.2490
vt 0.3973 0.4466
vt 0.3818 0.4382
vt 0.3761 0.4352
vt 0.3924 0.3789
vt 0.3696 0.4149
vt 0.3803 0.3777
vt 0.8942 0.2590
vt 0.8600 0.2590
vt 0.8600 0.2239
vt 0.8942 0.2239
vt 0.2773 0.8915
vt 0.2773 0.9741
vt 0.2715 0.9741
vt 0.2715 0.8915
vt 0.2594 0.9741
vt 0.2594 0.8915
vt 0.2379 0.9740
vt 0.2379 0.8915
vt 0.2258 0.9740
vt 0.2258 0.8915
vt 0.2200 0.9740
vt 0.2200 0.8915
vt 0.8942 0.1888
vt 0.8600 0.1888
vt 0.8942 0.2941
vt 0.8600 0.2941
vt 0.8942 0.3293
vt 0.8600 0.3293
vt 0.8942 0.3644
vt 0.8600 0.3644
vt 0.8942 0.3995
vt 0.8600 0.3995
vt 0.8942 0.4346
vt 0.8600 0.4346
vt 0.8942 0.4697
vt 0.8600 0.4697
vt 0.8942 0.0483
vt 0.8942 0.0834
vt 0.8600 0.0834
vt 0.8600 0.0483
vt 0.8942 0.1186
vt 0.8600 0.1186
vt 0.8942 0.1537
vt 0.8600 0.1537
vn 0.0000 -1.0000 0.0000
vn 0.0000 1.0000 0.0000
vn 1.0000 0.0000 0.0000
vn 0.2588 0.0000 0.9659
vn 0.5893 0.0000 0.8079
vn 0.9997 0.0000 0.0243
vn 0.4787 0.0000 -0.8779
vn -0.4050 0.0000 -0.9143
vn -0.7071 0.0000 -0.7071
vn 0.5000 0.0000 -0.8660
vn 0.9659 0.0000 0.2588
vn 0.9943 0.0000 -0.1063
vn 0.5209 0.0000 -0.8536
vn -0.5209 0.0000 -0.8536
vn -0.9943 0.0000 -0.1063
vn -0.9659 0.0000 0.2588
vn -0.5000 0.0000 -0.8660
vn 0.7071 0.0000 -0.7071
vn 0.4050 0.0000 -0.9143
vn -0.4787 0.0000 -0.8779
vn -0.9997 0.0000 0.0243
vn -0.5893 0.0000 0.8079
vn -0.2588 0.0000 0.9659
vn -1.0000 0.0000 0.0000
vn -0.2588 0.0000 -0.9659
vn -0.5893 0.0000 -0.8079
vn -0.9997 0.0000 -0.0243
vn -0.4787 0.0000 0.8779
vn 0.4050 0.0000 0.9143
vn 0.7071 0.0000 0.7071
vn -0.5000 0.0000 0.8660
vn -0.9659 0.0000 -0.2588
vn -0.9943 0.0000 0.1063
vn -0.5209 0.0000 0.8536
vn 0.5209 0.0000 0.8536
vn 0.9943 0.0000 0.1063
vn 0.9659 0.0000 -0.2588
vn 0.5000 0.0000 0.8660
vn -0.7071 0.0000 0.7071
vn -0.4050 0.0000 0.9143
vn 0.4787 0.0000 0.8779
vn 0.9997 0.0000 -0.0243
vn 0.5893 0.0000 -0.8079
vn 0.2588 0.0000 -0.9659
s 1
f 116/1/1 206/2/1 207/3/1 118/4/1
f 118/4/1 207/3/1 194/5/1 126/6/1
f 4/7/1 118/4/1 126/6/1 103/8/1
f 156/9/1 4/7/1 103/8/1 104/10/1
f 177/11/2 174/12/2 161/13/2 186/14/2
f 186/14/2 161/13/2 113/15/2 187/16/2
f 161/13/2 12/17/2 115/18/2 113/15/2
f 12/17/2 151/19/2 15/20/2 115/18/2
f 175/21/3 117/22/3 119/23/3 162/24/3
f 10/25/4 3/26/4 143/27/5 163/28/5
f 163/28/5 143/27/5 6/29/6 14/30/6
f 14/30/6 6/29/6 7/31/7 152/32/7
f 152/32/7 7/31/7 5/33/8 13/34/8
f 13/34/8 5/33/8 127/35/9 114/36/9
f 126/6/1 194/5/1 195/37/1 128/38/1
f 128/38/1 195/37/1 137/39/1 141/40/1
f 181/41/1 128/38/1 141/40/1 97/42/1
f 105/43/1 181/41/1 97/42/1 98/44/1
f 187/16/2 113/15/2 202/45/2 199/46/2
f 199/46/2 202/45/2 191/47/2 200/48/2
f 202/45/2 204/49/2 29/50/2 191/47/2
f 204/49/2 30/51/2 168/52/2 29/50/2
f 11/53/10 18/54/10 129/55/10 203/56/10
f 27/57/11 19/58/11 21/59/12 28/60/12
f 28/60/12 21/59/12 23/61/13 173/62/13
f 173/62/13 23/61/13 24/63/14 31/64/14
f 31/64/14 24/63/14 22/65/15 167/66/15
f 167/66/15 22/65/15 142/67/16 192/68/16
f 141/40/1 137/39/1 138/69/1 196/70/1
f 196/70/1 138/69/1 216/71/1 100/72/1
f 198/73/1 196/70/1 100/72/1 106/74/1
f 39/75/1 198/73/1 106/74/1 107/76/1
f 200/48/2 191/47/2 153/77/2 193/78/2
f 193/78/2 153/77/2 102/79/2 139/80/2
f 153/77/2 155/81/2 133/82/2 102/79/2
f 155/81/2 47/83/2 136/84/2 133/82/2
f 42/85/17 20/86/17 197/87/17 154/88/17
f 43/89/18 35/90/18 37/91/19 45/92/19
f 45/92/19 37/91/19 201/93/20 208/94/20
f 208/94/20 201/93/20 40/95/21 48/96/21
f 48/96/21 40/95/21 38/97/22 46/98/22
f 46/98/22 38/97/22 99/99/23 101/100/23
f 100/72/1 216/71/1 134/101/1 178/102/1
f 178/102/1 134/101/1 135/103/1 170/104/1
f 180/105/1 178/102/1 170/104/1 53/106/1
f 205/107/1 180/105/1 53/106/1 148/108/1
f 139/80/2 102/79/2 120/109/2 140/110/2
f 140/110/2 120/109/2 157/111/2 213/112/2
f 120/109/2 122/113/2 132/114/2 157/111/2
f 122/113/2 130/115/2 131/116/2 132/114/2
f 44/117/24 36/118/24 179/119/24 121/120/24
f 59/121/25 51/122/25 52/123/26 60/124/26
f 60/124/26 52/123/26 54/125/27 62/126/27
f 62/126/27 54/125/27 55/127/28 63/128/28
f 63/128/28 55/127/28 147/129/29 61/130/29
f 61/130/29 147/129/29 169/131/30 158/132/30
f 170/104/1 135/103/1 211/133/1 214/134/1
f 214/134/1 211/133/1 184/135/1 110/136/1
f 212/137/1 214/134/1 110/136/1 112/138/1
f 188/139/1 212/137/1 112/138/1 72/140/1
f 213/112/2 157/111/2 159/141/2 108/142/2
f 108/142/2 159/141/2 123/143/2 109/144/2
f 159/141/2 210/145/2 125/146/2 123/143/2
f 210/145/2 209/147/2 81/148/2 125/146/2
f 75/149/31 66/150/31 215/151/31 160/152/31
f 76/153/32 67/154/32 69/155/33 78/156/33
f 78/156/33 69/155/33 71/157/34 80/158/34
f 80/158/34 71/157/34 183/159/35 146/160/35
f 146/160/35 183/159/35 70/161/36 79/162/36
f 79/162/36 70/161/36 111/163/37 77/164/37
f 68/165/38 165/166/38 149/167/38 124/168/38
f 164/169/1 185/170/1 206/2/1 116/1/1
f 166/171/1 164/169/1 116/1/1 86/172/1
f 182/173/1 166/171/1 86/172/1 88/174/1
f 184/135/1 185/170/1 164/169/1 110/136/1
f 176/175/2 150/176/2 174/12/2 177/11/2
f 150/176/2 189/177/2 94/178/2 174/12/2
f 189/177/2 190/179/2 145/180/2 94/178/2
f 65/181/25 74/182/25 89/183/9 82/184/9
f 91/185/39 84/186/39 85/187/40 93/188/40
f 93/188/40 85/187/40 87/189/41 95/190/41
f 95/190/41 87/189/41 172/191/42 96/192/42
f 96/192/42 172/191/42 171/193/43 144/194/43
f 144/194/43 171/193/43 2/195/44 92/196/44
f 83/197/32 82/184/9 89/183/9 90/198/32
f 65/181/25 64/199/44 73/200/44 74/182/25
f 64/199/44 50/201/18 58/202/18 73/200/44
f 50/201/18 49/203/37 57/204/37 58/202/18
f 49/203/37 34/205/11 56/206/11 57/204/37
f 34/205/11 33/207/30 41/208/30 56/206/11
f 33/207/30 32/209/4 26/210/4 41/208/30
f 32/211/4 17/212/23 25/213/23 26/214/4
f 17/212/23 16/215/39 9/216/39 25/213/23
f 16/215/39 1/217/16 8/218/16 9/216/39
f 1/217/16 83/197/32 90/198/32 8/218/16
f 123/143/2 150/176/2 176/175/2 109/144/2
