# Blender v2.77 (sub 0) OBJ File: 'AirDuct.blend'
# www.blender.org
o Cube.000_Cube.006
v -0.289853 0.228500 0.271500
v -0.289853 -0.228500 0.271500
v -0.302158 -0.251093 0.294093
v -0.302158 0.251093 0.294093
v -0.289853 -0.251093 0.294093
v -0.289853 0.251093 0.294093
v -0.302158 -0.251093 -0.294093
v -0.302158 0.251093 -0.294093
v -0.289853 -0.251093 -0.294093
v -0.289853 0.251093 -0.294093
v -0.252647 0.228500 0.308908
v -0.252647 -0.228500 0.308908
v -0.275240 0.251093 0.308908
v -0.275240 0.251093 0.321213
v -0.275240 -0.251093 0.321213
v -0.275240 -0.251093 0.308908
v 0.052516 -0.228468 -0.162226
v 0.290353 0.228500 0.308908
v -0.261170 -0.228500 0.282197
v 0.312946 0.251093 0.308908
v 0.312946 0.251093 0.321213
v 0.312945 -0.251093 0.321213
v 0.312945 -0.251093 0.308908
v -0.289853 -0.228500 -0.271500
v -0.289853 0.228500 -0.271500
v -0.108847 -0.228468 -0.244445
v -0.108847 0.228468 -0.244445
v 0.052516 0.228468 -0.162227
v 0.180574 -0.228468 -0.034168
v 0.180574 0.228468 -0.034168
v 0.262792 -0.228468 0.127195
v 0.262792 0.228468 0.127195
v 0.290352 -0.228500 0.308908
v -0.261170 0.228500 0.282197
v -0.289853 0.228500 0.271500
v -0.289853 0.228500 0.271500
v -0.289853 -0.228500 0.271500
v -0.289853 -0.228500 0.271500
v -0.302158 -0.251093 0.294093
v -0.302158 -0.251093 0.294093
v -0.302158 0.251093 0.294093
v -0.302158 0.251093 0.294093
v -0.289853 -0.251093 0.294093
v -0.289853 -0.251093 0.294093
v -0.289853 0.251093 0.294093
v -0.289853 0.251093 0.294093
v 0.180574 -0.228468 -0.034168
v 0.052516 -0.228468 -0.162226
v -0.108847 -0.228468 -0.244445
v -0.289853 0.251093 -0.294093
v -0.289853 0.251093 -0.294093
v -0.289853 -0.251093 -0.294093
v -0.289853 -0.251093 -0.294093
v -0.302158 0.251093 -0.294093
v -0.302158 0.251093 -0.294093
v -0.302158 -0.251093 -0.294093
v -0.302158 -0.251093 -0.294093
v -0.252647 0.228500 0.308908
v -0.252647 0.228500 0.308908
v -0.252647 -0.228500 0.308908
v -0.252647 -0.228500 0.308908
v -0.275240 0.251093 0.308908
v -0.275240 0.251093 0.308908
v -0.275240 0.251093 0.321213
v -0.275240 0.251093 0.321213
v -0.275240 -0.251093 0.321213
v -0.275240 -0.251093 0.321213
v -0.275240 -0.251093 0.308908
v -0.275240 -0.251093 0.308908
v 0.312946 0.251093 0.308908
v 0.312946 0.251093 0.308908
v 0.312945 -0.251093 0.308908
v 0.312945 -0.251093 0.308908
v 0.312945 -0.251093 0.321213
v 0.312945 -0.251093 0.321213
v 0.312946 0.251093 0.321213
v 0.312946 0.251093 0.321213
v -0.261170 -0.228500 0.282197
v -0.261170 0.228500 0.282197
v 0.290353 0.228500 0.308908
v 0.290353 0.228500 0.308908
v -0.289853 -0.228500 -0.271500
v -0.289853 -0.228500 -0.271500
v -0.108847 0.228468 -0.244445
v -0.289853 0.228500 -0.271500
v -0.289853 0.228500 -0.271500
v 0.052516 0.228468 -0.162227
v 0.180574 0.228468 -0.034168
v 0.262792 -0.228468 0.127195
v 0.262792 0.228468 0.127195
v 0.290352 -0.228500 0.308908
v 0.290352 -0.228500 0.308908
vt 0.4285 0.5322
vt 0.4339 0.5267
vt 0.4339 0.6685
vt 0.4285 0.6630
vt 0.3129 0.6685
vt 0.3129 0.5267
vt 0.3183 0.5322
vt 0.3183 0.6630
vt 0.8899 0.1309
vt 0.8899 0.0099
vt 0.8929 0.0099
vt 0.8929 0.1309
vt 0.8899 0.2727
vt 0.8899 0.1309
vt 0.8929 0.1309
vt 0.8929 0.2727
vt 0.8929 0.3937
vt 0.8929 0.5355
vt 0.8899 0.5355
vt 0.8899 0.3937
vt 0.0090 0.5090
vt 0.1508 0.5090
vt 0.1508 0.6300
vt 0.0090 0.6300
vt 0.8841 0.7332
vt 0.8454 0.7129
vt 0.9224 0.6067
vt 0.7956 0.6425
vt 0.7896 0.5986
vt 0.9204 0.6003
vt 0.8899 0.2727
vt 0.8929 0.2727
vt 0.8929 0.3937
vt 0.8899 0.3937
vt 0.8150 0.6816
vt 0.2045 0.9624
vt 0.1991 0.9679
vt 0.1991 0.8261
vt 0.2045 0.8315
vt 0.9624 0.7656
vt 0.8357 0.8032
vt 0.8289 0.7596
vt 0.9598 0.7587
vt 0.7380 0.9630
vt 0.8798 0.9630
vt 0.8798 0.9659
vt 0.7380 0.9659
vt 0.4752 0.9659
vt 0.3542 0.9659
vt 0.3542 0.9630
vt 0.4752 0.9630
vt 0.3147 0.8315
vt 0.3201 0.8261
vt 0.6170 0.9659
vt 0.4752 0.9659
vt 0.4752 0.9630
vt 0.6170 0.9630
vt 0.3201 0.9679
vt 0.3147 0.9624
vt 0.9259 0.8921
vt 0.8869 0.8726
vt 0.8558 0.8419
vt 0.9688 0.7676
vt 0.9698 0.8985
vt 0.6170 0.9659
vt 0.6170 0.9630
vt 0.7380 0.9630
vt 0.7380 0.9659
vt 0.9293 0.6094
vt 0.9276 0.7403
vt 0.4870 0.0098
vt 0.5971 0.0098
vt 0.5971 0.0539
vt 0.4870 0.0539
vt 0.5971 0.0975
vt 0.4870 0.0975
vt 0.5971 0.1412
vt 0.4870 0.1412
vt 0.5971 0.1848
vt 0.4870 0.1848
vt 0.5971 0.2291
vt 0.4870 0.2291
vt 0.7377 0.1515
vt 0.7377 0.0098
vt 0.8587 0.0098
vt 0.8587 0.1515
vt 0.4870 0.2530
vt 0.4870 0.2457
vt 0.5971 0.2457
vt 0.5971 0.2530
vt 0.4870 0.2389
vt 0.5971 0.2389
vn 1.0000 0.0000 0.0000
vn 0.0000 0.0000 1.0000
vn 0.0000 -1.0000 0.0000
vn 0.0000 1.0000 0.0000
vn 0.0001 -1.0000 0.0000
vn 0.0001 -1.0000 -0.0001
vn 0.0000 -1.0000 -0.0001
vn 0.0000 -1.0000 -0.0002
vn 0.0000 0.0000 -1.0000
vn 0.0001 1.0000 -0.0001
vn 0.0001 1.0000 0.0000
vn 0.0002 1.0000 0.0000
vn -1.0000 0.0000 0.0000
vn 0.0000 1.0000 -0.0001
vn 0.0000 1.0000 -0.0002
vn 0.0002 -1.0000 0.0000
vn 0.1478 0.0000 -0.9890
vn 0.3048 0.0000 -0.9524
vn 0.5878 0.0000 -0.8090
vn 0.8090 0.0000 -0.5878
vn 0.9521 0.0000 -0.3059
vn 0.9887 0.0000 -0.1499
vn -0.3494 0.0000 0.9369
vn -0.7239 0.0000 0.6899
vn -0.9527 0.0000 0.3040
s 1
f 86/1/1 50/2/1 46/3/1 35/4/1
f 43/5/1 52/6/1 83/7/1 37/8/1
f 44/9/2 45/10/2 41/11/2 39/12/2
f 37/8/1 35/4/1 46/3/1 43/5/1
f 53/13/3 5/14/3 40/15/3 56/16/3
f 54/17/4 42/18/4 6/19/4 51/20/4
f 66/21/2 74/22/2 76/23/2 65/24/2
f 49/25/5 48/26/3 78/27/6
f 78/27/6 89/28/7 91/29/8 61/30/8
f 9/31/9 57/32/9 55/33/9 10/34/9
f 83/7/1 52/6/1 50/2/1 86/1/1
f 48/26/3 47/35/3 78/27/6
f 89/28/7 78/27/6 47/35/3
f 92/36/9 72/37/9 68/38/9 60/39/9
f 79/40/10 84/41/11 85/42/12 36/43/12
f 70/44/4 62/45/4 64/46/4 77/47/4
f 67/48/13 14/49/13 63/50/13 69/51/13
f 58/52/9 60/39/9 68/38/9 13/53/9
f 75/54/3 15/55/3 16/56/3 73/57/3
f 13/53/9 20/58/9 80/59/9 58/52/9
f 90/60/14 88/61/4 79/40/10
f 84/41/11 79/40/10 28/62/4
f 79/40/10 59/63/15 81/64/15 90/60/14
f 22/65/1 23/66/1 71/67/1 21/68/1
f 80/59/9 20/58/9 72/37/9 92/36/9
f 78/27/6 38/69/16 82/70/16 49/25/5
f 28/62/4 79/40/10 88/61/4
f 24/71/17 25/72/17 27/73/18 26/74/18
f 26/74/18 27/73/18 87/75/19 17/76/19
f 17/76/19 87/75/19 30/77/20 29/78/20
f 29/78/20 30/77/20 32/79/21 31/80/21
f 31/80/21 32/79/21 18/81/22 33/82/22
f 4/83/13 8/84/13 7/85/13 3/86/13
f 2/87/23 19/88/24 34/89/24 1/90/23
f 12/91/25 11/92/25 34/89/24 19/88/24
