# Blender v2.77 (sub 0) OBJ File: 'Stool and Table.blend'
# www.blender.org
o Cylinder
v -0.101097 0.701487 1.665845
v -0.230896 0.017001 1.665845
v -0.214944 -0.005368 1.699425
v -0.192616 0.010349 1.688277
v -0.214944 -0.005368 1.721995
v -0.192616 0.010349 1.733142
v -0.234202 -0.002022 1.733279
v -0.230896 0.017001 1.755575
v -0.253459 0.001324 1.721995
v -0.269177 0.023652 1.733142
v -0.269177 0.023652 1.688277
v 0.091919 0.701487 1.644137
v 0.053352 0.694835 1.666072
v 0.014498 0.694835 1.643640
v 0.014211 0.701487 1.599272
v 0.052779 0.708138 1.577336
v 0.091633 0.708138 1.599769
v 0.156819 0.017001 1.531727
v 0.139164 -0.002022 1.517717
v 0.119762 -0.005368 1.528752
v 0.118252 0.010349 1.553663
v 0.100216 -0.005368 1.517467
v 0.079398 0.010349 1.531230
v 0.100072 -0.002022 1.495147
v 0.079111 0.017001 1.486862
v 0.119473 0.001324 1.484112
v 0.117678 0.023652 1.464927
v 0.139019 0.001324 1.495397
v 0.156532 0.023652 1.487359
v 0.014211 0.701487 1.822148
v 0.014498 0.694835 1.777780
v 0.053352 0.694835 1.755347
v 0.091919 0.701487 1.777283
v 0.091633 0.708138 1.821651
v 0.052779 0.708138 1.844084
v 0.079111 0.017001 1.934557
v 0.100072 -0.002022 1.926272
v 0.100216 -0.005368 1.903953
v 0.079398 0.010349 1.890189
v 0.119762 -0.005368 1.892668
v 0.118252 0.010349 1.867757
v 0.139164 -0.002022 1.903703
v 0.156819 0.017001 1.889693
v 0.139019 0.001324 1.926023
v 0.156532 0.023652 1.934061
v 0.119473 0.001324 1.937307
v 0.117678 0.023652 1.956493
v -0.062817 0.694835 1.688277
v -0.062817 0.694835 1.733142
v -0.101097 0.701487 1.755575
v -0.139377 0.708138 1.733142
v -0.139377 0.708138 1.688277
v -0.234202 -0.002022 1.688140
v -0.253459 0.001324 1.699425
v -0.000000 0.694954 1.453267
v -0.000000 0.747887 1.453267
v 0.128721 0.694954 1.487758
v 0.128721 0.747887 1.487758
v 0.222952 0.694954 1.581988
v 0.222952 0.747887 1.581988
v 0.257443 0.694954 1.710710
v 0.257443 0.747887 1.710710
v 0.222952 0.694954 1.839431
v 0.222952 0.747887 1.839431
v 0.128721 0.694954 1.933662
v 0.128721 0.747887 1.933662
v -0.000000 0.694954 1.968153
v -0.000000 0.747887 1.968153
v -0.128722 0.694954 1.933662
v -0.128722 0.747887 1.933662
v -0.222952 0.694954 1.839431
v -0.222952 0.747887 1.839431
v -0.257443 0.694954 1.710710
v -0.257443 0.747887 1.710710
v -0.222952 0.694954 1.581988
v -0.222952 0.747887 1.581988
v -0.128722 0.694954 1.487758
v -0.128722 0.747887 1.487758
v -0.000000 0.694954 1.453267
v 0.128721 0.694954 1.487758
v 0.128721 0.747887 1.487758
v -0.000000 0.747887 1.453267
v 0.222952 0.694954 1.581988
v 0.222952 0.747887 1.581988
v 0.257443 0.694954 1.710710
v 0.257443 0.747887 1.710710
v 0.222952 0.694954 1.839431
v 0.222952 0.747887 1.839431
v 0.128721 0.694954 1.933662
v 0.128721 0.747887 1.933662
v -0.000000 0.694954 1.968153
v -0.000000 0.747887 1.968153
v -0.128722 0.694954 1.933662
v -0.128722 0.747887 1.933662
v -0.222952 0.694954 1.839431
v -0.222952 0.747887 1.839431
v -0.257443 0.694954 1.710710
v -0.257443 0.747887 1.710710
v -0.222952 0.694954 1.581988
v -0.222952 0.747887 1.581988
v -0.128722 0.694954 1.487758
v -0.128722 0.747887 1.487758
vt 0.7864 0.2089
vt 0.7795 0.2298
vt 0.7669 0.2288
vt 0.7609 0.2066
vt 0.7678 0.1858
vt 0.7804 0.1868
vt 0.9842 0.1099
vt 0.9842 0.9641
vt 0.9567 0.9633
vt 0.9567 0.1092
vt 0.9292 0.9626
vt 0.9292 0.1085
vt 0.9017 0.9626
vt 0.9017 0.1085
vt 0.8467 0.1099
vt 0.8467 0.9641
vt 0.8192 0.9641
vt 0.8192 0.1099
vt 0.8742 0.9633
vt 0.8742 0.1092
vt 0.3425 0.7921
vt 0.2651 0.8814
vt 0.1758 0.2146
vt 0.2651 0.2146
vt 0.8056 0.2078
vt 0.7893 0.2619
vt 0.7580 0.2619
vt 0.7417 0.2078
vt 0.7580 0.1537
vt 0.7893 0.1537
vt 0.7669 0.2287
vt 0.7609 0.2066
vt 0.7678 0.1858
vt 0.7804 0.1868
vt 0.7864 0.2089
vt 0.7795 0.2298
vt 0.9842 0.1099
vt 0.9842 0.9641
vt 0.9567 0.9633
vt 0.9567 0.1092
vt 0.9292 0.9626
vt 0.9292 0.1085
vt 0.9017 0.9626
vt 0.9017 0.1085
vt 0.8467 0.1099
vt 0.8467 0.9641
vt 0.8192 0.9641
vt 0.8192 0.1099
vt 0.8742 0.9633
vt 0.8742 0.1092
vt 0.3872 0.6373
vt 0.3425 0.3039
vt 0.7580 0.2619
vt 0.7417 0.2078
vt 0.7580 0.1537
vt 0.7893 0.1537
vt 0.8056 0.2078
vt 0.7893 0.2619
vt 0.7676 0.2288
vt 0.7618 0.2066
vt 0.7683 0.1857
vt 0.7808 0.1858
vt 0.7867 0.2086
vt 0.7801 0.2302
vt 0.9567 0.1099
vt 0.9567 0.9641
vt 0.9292 0.9633
vt 0.9292 0.1092
vt 0.9017 0.9626
vt 0.9017 0.1085
vt 0.8742 0.9626
vt 0.8742 0.1085
vt 0.9842 0.1099
vt 0.9842 0.9641
vt 0.8467 0.9633
vt 0.8467 0.1092
vt 0.3872 0.4587
vt 0.7585 0.2616
vt 0.7431 0.2073
vt 0.7588 0.1528
vt 0.7902 0.1531
vt 0.8056 0.2078
vt 0.7901 0.2631
vt 0.8192 0.9641
vt 0.8192 0.1099
vt 0.9902 0.0146
vt 0.9902 0.0795
vt 0.9085 0.0795
vt 0.9085 0.0146
vt 0.8268 0.0795
vt 0.8268 0.0146
vt 0.7451 0.0795
vt 0.7451 0.0146
vt 0.6634 0.0795
vt 0.6634 0.0146
vt 0.5817 0.0795
vt 0.5817 0.0146
vt 0.5000 0.0795
vt 0.5000 0.0146
vt 0.4184 0.0795
vt 0.4184 0.0146
vt 0.3367 0.0795
vt 0.3367 0.0146
vt 0.2550 0.0795
vt 0.2550 0.0146
vt 0.1733 0.0795
vt 0.1733 0.0146
vt 0.0538 0.4587
vt 0.0984 0.3039
vt 0.1758 0.8814
vt 0.0984 0.7921
vt 0.0916 0.0795
vt 0.0916 0.0146
vt 0.0099 0.0795
vt 0.0099 0.0146
vt 0.0538 0.6373
vt 0.7819 0.4534
vt 0.7819 0.6320
vt 0.7372 0.2986
vt 0.6598 0.2093
vt 0.7372 0.7868
vt 0.5705 0.2093
vt 0.6598 0.8761
vt 0.5705 0.8761
vt 0.4931 0.2986
vt 0.4931 0.7868
vt 0.4484 0.4534
vt 0.4484 0.6320
vn -0.1535 -0.8836 -0.4422
vn 0.2238 -0.9492 -0.2211
vn 0.2238 -0.9492 0.2211
vn -0.1535 -0.8836 0.4422
vn -0.5309 -0.8180 0.2211
vn -0.5309 -0.8180 -0.2211
vn 0.7242 -0.5100 0.4641
vn 0.8521 -0.1616 0.4978
vn 0.0048 -0.0009 1.0000
vn -0.0667 -0.3664 0.9281
vn -0.8497 0.1611 0.5021
vn -0.8574 -0.2229 0.4639
vn -0.8497 0.1611 -0.5021
vn -0.8574 -0.2229 -0.4639
vn 0.7242 -0.5100 -0.4641
vn 0.8521 -0.1616 -0.4978
vn 0.0048 -0.0009 -1.0000
vn -0.0667 -0.3664 -0.9281
vn 0.0000 1.0000 0.0000
vn 0.4598 -0.8836 0.0881
vn 0.0796 -0.9492 0.3044
vn -0.3034 -0.9492 0.0833
vn -0.3062 -0.8836 -0.3541
vn 0.0739 -0.8180 -0.5703
vn 0.4570 -0.8180 -0.3492
vn -0.7640 -0.5100 0.3952
vn -0.8572 -0.1616 0.4890
vn -0.8684 -0.0009 -0.4958
vn -0.7704 -0.3664 -0.5217
vn -0.0100 0.1611 -0.9869
vn 0.0269 -0.2229 -0.9745
vn 0.8596 0.1611 -0.4848
vn 0.8305 -0.2229 -0.5105
vn 0.0398 -0.5100 0.8592
vn 0.0051 -0.1616 0.9868
vn 0.8636 -0.0009 0.5041
vn 0.8371 -0.3664 0.4063
vn -0.3062 -0.8836 0.3541
vn -0.3034 -0.9492 -0.0833
vn 0.0796 -0.9492 -0.3044
vn 0.4598 -0.8836 -0.0881
vn 0.4570 -0.8180 0.3492
vn 0.0739 -0.8180 0.5703
vn 0.0398 -0.5100 -0.8592
vn 0.0051 -0.1616 -0.9868
vn 0.8636 -0.0009 -0.5041
vn 0.8371 -0.3664 -0.4063
vn 0.8596 0.1611 0.4848
vn 0.8305 -0.2229 0.5105
vn -0.0100 0.1611 0.9869
vn 0.0269 -0.2229 0.9745
vn -0.7640 -0.5100 -0.3952
vn -0.8572 -0.1616 -0.4890
vn -0.8684 -0.0009 0.4958
vn -0.7704 -0.3664 0.5217
vn 0.0000 0.0000 -1.0000
vn 0.5000 0.0000 -0.8660
vn 0.8660 0.0000 -0.5000
vn 1.0000 0.0000 0.0000
vn 0.8660 0.0000 0.5000
vn 0.5000 0.0000 0.8660
vn 0.0000 0.0000 1.0000
vn -0.5000 0.0000 0.8660
vn -0.8660 0.0000 0.5000
vn -1.0000 0.0000 0.0000
vn -0.8660 0.0000 -0.5000
vn -0.5000 0.0000 -0.8660
vn 0.0000 -1.0000 0.0000
s 1
f 53/1/1 3/2/2 5/3/3 7/4/4 9/5/5 54/6/6
f 6/7/7 49/8/8 50/9/9 8/10/10
f 8/10/10 50/9/9 51/11/11 10/12/12
f 10/12/12 51/11/11 52/13/13 11/14/14
f 4/15/15 48/16/16 49/17/8 6/18/7
f 11/14/14 52/13/13 1/19/17 2/20/18
f 81/21/19 82/22/19 92/23/19 90/24/19
f 53/1/1 2/25/18 4/26/15 3/2/2
f 3/2/2 4/26/15 6/27/7 5/3/3
f 5/3/3 6/27/7 8/28/10 7/4/4
f 7/4/4 8/28/10 10/29/12 9/5/5
f 9/5/5 10/29/12 11/30/14 54/6/6
f 54/6/6 11/30/14 2/25/18 53/1/1
f 2/20/18 1/19/17 48/16/16 4/15/15
f 19/31/20 20/32/21 22/33/22 24/34/23 26/35/24 28/36/25
f 23/37/26 14/38/27 15/39/28 25/40/29
f 25/40/29 15/39/28 16/41/30 27/42/31
f 27/42/31 16/41/30 17/43/32 29/44/33
f 21/45/34 13/46/35 14/47/27 23/48/26
f 29/44/33 17/43/32 12/49/36 18/50/37
f 84/51/19 81/21/19 90/24/19 88/52/19
f 19/31/20 18/53/37 21/54/34 20/32/21
f 20/32/21 21/54/34 23/55/26 22/33/22
f 22/33/22 23/55/26 25/56/29 24/34/23
f 24/34/23 25/56/29 27/57/31 26/35/24
f 26/35/24 27/57/31 29/58/33 28/36/25
f 28/36/25 29/58/33 18/53/37 19/31/20
f 18/50/37 12/49/36 13/46/35 21/45/34
f 37/59/38 38/60/39 40/61/40 42/62/41 44/63/42 46/64/43
f 41/65/44 32/66/45 33/67/46 43/68/47
f 43/68/47 33/67/46 34/69/48 45/70/49
f 45/70/49 34/69/48 35/71/50 47/72/51
f 39/73/52 31/74/53 32/66/45 41/65/44
f 47/72/51 35/71/50 30/75/54 36/76/55
f 86/77/19 84/51/19 88/52/19
f 37/59/38 36/78/55 39/79/52 38/60/39
f 38/60/39 39/79/52 41/80/44 40/61/40
f 40/61/40 41/80/44 43/81/47 42/62/41
f 42/62/41 43/81/47 45/82/49 44/63/42
f 44/63/42 45/82/49 47/83/51 46/64/43
f 46/64/43 47/83/51 36/78/55 37/59/38
f 36/76/55 30/75/54 31/84/53 39/85/52
f 79/86/56 56/87/56 58/88/57 80/89/57
f 80/89/57 58/88/57 60/90/58 83/91/58
f 83/91/58 60/90/58 62/92/59 85/93/59
f 85/93/59 62/92/59 64/94/60 87/95/60
f 87/95/60 64/94/60 66/96/61 89/97/61
f 89/97/61 66/96/61 68/98/62 91/99/62
f 91/99/62 68/98/62 94/100/63 93/101/63
f 93/101/63 94/100/63 96/102/64 95/103/64
f 95/103/64 96/102/64 98/104/65 97/105/65
f 97/105/65 98/104/65 100/106/66 99/107/66
f 72/108/19 70/109/19 102/110/19 76/111/19
f 99/107/66 100/106/66 78/112/67 101/113/67
f 101/113/67 78/112/67 56/114/56 79/115/56
f 70/109/19 92/23/19 82/22/19 102/110/19
f 74/116/19 72/108/19 76/111/19
f 61/117/68 63/118/68 59/119/68
f 57/120/68 59/119/68 63/118/68 65/121/68
f 55/122/68 57/120/68 65/121/68 67/123/68
f 67/123/68 69/124/68 77/125/68 55/122/68
f 69/124/68 71/126/68 75/127/68 77/125/68
f 73/128/68 75/127/68 71/126/68
